<svg width="56" height="34" viewBox="0 0 56 34" fill="none" xmlns="http://www.w3.org/2000/svg">
<path fill-rule="evenodd" clip-rule="evenodd" d="M28 29.9391C25.0343 32.4714 21.1873 34.0001 16.9836 34.0001C7.60382 34.0001 0 26.389 0 17.0001C0 7.61128 7.60382 0.00012207 16.9836 0.00012207C21.1873 0.00012207 25.0343 1.52885 28 4.06119C30.9657 1.52885 34.8127 0.00012207 39.0164 0.00012207C48.3962 0.00012207 56 7.61128 56 17.0001C56 26.389 48.3962 34.0001 39.0164 34.0001C34.8127 34.0001 30.9657 32.4714 28 29.9391Z" fill="#ED0006"/>
<path fill-rule="evenodd" clip-rule="evenodd" d="M28 29.9391C31.6517 26.8209 33.9672 22.1812 33.9672 17.0001C33.9672 11.819 31.6517 7.1793 28 4.06119C30.9657 1.52885 34.8127 0.00012207 39.0164 0.00012207C48.3962 0.00012207 56 7.61128 56 17.0001C56 26.389 48.3962 34.0001 39.0164 34.0001C34.8127 34.0001 30.9657 32.4714 28 29.9391Z" fill="#F9A000"/>
<path fill-rule="evenodd" clip-rule="evenodd" d="M28.0001 29.939C31.6518 26.8209 33.9672 22.1812 33.9672 17.0001C33.9672 11.8191 31.6518 7.17936 28.0001 4.06125C24.3484 7.17936 22.033 11.8191 22.033 17.0001C22.033 22.1812 24.3484 26.8209 28.0001 29.939Z" fill="#FF5E00"/>
</svg>
