<svg width="32" height="32" viewBox="0 0 32 32" fill="none" xmlns="http://www.w3.org/2000/svg">
<path d="M16 3.20001C19.4777 3.20001 19.9116 3.21281 21.2761 3.27681C22.6393 3.34081 23.5673 3.55457 24.384 3.87201C25.2288 4.19713 25.9404 4.63745 26.6521 5.34785C27.303 5.98772 27.8066 6.76173 28.128 7.61601C28.4441 8.43137 28.6592 9.36065 28.7232 10.7239C28.7833 12.0883 28.8 12.5223 28.8 16C28.8 19.4778 28.7872 19.9117 28.7232 21.2762C28.6592 22.6394 28.4441 23.5674 28.128 24.384C27.8075 25.2388 27.3038 26.013 26.6521 26.6522C26.0121 27.3028 25.2381 27.8064 24.384 28.128C23.5686 28.4442 22.6393 28.6592 21.2761 28.7232C19.9116 28.7834 19.4777 28.8 16 28.8C12.5222 28.8 12.0883 28.7872 10.7238 28.7232C9.36059 28.6592 8.43259 28.4442 7.61595 28.128C6.76133 27.8073 5.98719 27.3036 5.34779 26.6522C4.69679 26.0124 4.19314 25.2384 3.87195 24.384C3.55451 23.5687 3.34075 22.6394 3.27675 21.2762C3.21659 19.9117 3.19995 19.4778 3.19995 16C3.19995 12.5223 3.21275 12.0883 3.27675 10.7239C3.34075 9.35937 3.55451 8.43265 3.87195 7.61601C4.19225 6.7612 4.69602 5.98698 5.34779 5.34785C5.98737 4.69663 6.76146 4.19295 7.61595 3.87201C8.43259 3.55457 9.35931 3.34081 10.7238 3.27681C12.0883 3.21665 12.5222 3.20001 16 3.20001ZM16 9.60001C14.3026 9.60001 12.6747 10.2743 11.4745 11.4745C10.2742 12.6748 9.59995 14.3026 9.59995 16C9.59995 17.6974 10.2742 19.3253 11.4745 20.5255C12.6747 21.7257 14.3026 22.4 16 22.4C17.6973 22.4 19.3252 21.7257 20.5254 20.5255C21.7257 19.3253 22.4 17.6974 22.4 16C22.4 14.3026 21.7257 12.6748 20.5254 11.4745C19.3252 10.2743 17.6973 9.60001 16 9.60001ZM24.32 9.28001C24.32 8.85567 24.1514 8.4487 23.8513 8.14864C23.5513 7.84858 23.1443 7.68001 22.72 7.68001C22.2956 7.68001 21.8886 7.84858 21.5886 8.14864C21.2885 8.4487 21.12 8.85567 21.12 9.28001C21.12 9.70436 21.2885 10.1113 21.5886 10.4114C21.8886 10.7114 22.2956 10.88 22.72 10.88C23.1443 10.88 23.5513 10.7114 23.8513 10.4114C24.1514 10.1113 24.32 9.70436 24.32 9.28001ZM16 12.16C17.0184 12.16 17.9951 12.5646 18.7152 13.2847C19.4354 14.0049 19.84 14.9816 19.84 16C19.84 17.0184 19.4354 17.9952 18.7152 18.7153C17.9951 19.4354 17.0184 19.84 16 19.84C14.9815 19.84 14.0048 19.4354 13.2847 18.7153C12.5645 17.9952 12.16 17.0184 12.16 16C12.16 14.9816 12.5645 14.0049 13.2847 13.2847C14.0048 12.5646 14.9815 12.16 16 12.16Z" fill="white"/>
</svg>
