<svg width="25" height="24" viewBox="0 0 25 24" fill="none" xmlns="http://www.w3.org/2000/svg">
<path d="M11.6003 12.5811L6.35879 19.9007C6.09059 20.2751 5.6388 20.4722 5.18161 20.4155C4.66141 20.3507 3.94502 20.1554 3.20613 19.6244C2.46724 19.0934 2.05324 18.476 1.82555 18.0027C1.72706 17.7987 1.68529 17.572 1.70461 17.3464C1.72393 17.1207 1.80363 16.9044 1.93534 16.7202L7.17688 9.40055C7.42635 9.05199 7.7536 8.76635 8.13267 8.56626L9.16406 8.02267C9.37106 7.91377 9.55645 7.76797 9.71125 7.59247C10.2116 7.02458 11.5553 5.5369 13.9376 3.13123L13.979 2.94043C13.9838 2.91898 13.9944 2.89925 14.0097 2.88339C14.0249 2.86753 14.0442 2.85613 14.0654 2.85043L14.1968 2.81713C14.2244 2.81002 14.2487 2.79341 14.2653 2.77021C14.2819 2.74701 14.2899 2.71869 14.2877 2.69023L14.2742 2.52823C14.2727 2.51236 14.2745 2.49635 14.2794 2.48118C14.2844 2.46602 14.2923 2.45203 14.3029 2.44006C14.3134 2.42809 14.3263 2.4184 14.3407 2.41159C14.3551 2.40478 14.3708 2.40098 14.3867 2.40044C14.5451 2.39594 14.8529 2.44183 15.2876 2.75413C15.7223 3.06643 15.8636 3.34452 15.9104 3.49572C15.915 3.51103 15.9164 3.52712 15.9145 3.54299C15.9127 3.55887 15.9076 3.57419 15.8996 3.58802C15.8916 3.60185 15.8808 3.61389 15.8679 3.6234C15.8551 3.63291 15.8404 3.63969 15.8249 3.64332L15.6674 3.68292C15.6396 3.6897 15.6151 3.70623 15.5984 3.72951C15.5817 3.7528 15.5739 3.78129 15.5765 3.80982L15.5873 3.94482C15.5891 3.96672 15.5847 3.98869 15.5747 4.00825C15.5647 4.02781 15.5494 4.04418 15.5306 4.05552L15.3632 4.15631C13.8521 7.18838 12.8756 8.94066 12.4985 9.59765C12.3824 9.80091 12.3041 10.0235 12.2672 10.2546L12.0827 11.4075C12.0152 11.8311 11.85 12.2332 11.6003 12.582V12.5811ZM23.0653 16.7193L17.8238 9.39965C17.5743 9.05109 17.247 8.76545 16.868 8.56536L15.8366 8.02087C15.6295 7.91193 15.4441 7.76614 15.2894 7.59067C15.115 7.39295 14.9389 7.19674 14.7611 7.00208C14.7524 6.99302 14.7418 6.98612 14.73 6.98193C14.7182 6.97774 14.7055 6.97638 14.6931 6.97795C14.6807 6.97953 14.6688 6.984 14.6584 6.991C14.648 6.99801 14.6394 7.00735 14.6333 7.01828C14.1281 7.99495 13.6045 8.96201 13.0628 9.91895C12.9854 10.0539 12.9332 10.2018 12.9089 10.3554C12.8567 10.6843 12.8567 11.0193 12.9089 11.3481L12.9179 11.4057C12.9854 11.8296 13.151 12.2319 13.4003 12.5802L18.6418 19.8998C18.9082 20.2715 19.3528 20.4713 19.8064 20.4164C20.5255 20.3246 21.2096 20.0518 21.7945 19.6235C22.3835 19.2076 22.858 18.6498 23.1742 18.0017C23.2729 17.7979 23.3147 17.5711 23.2954 17.3454C23.2761 17.1197 23.1972 16.9034 23.0653 16.7193ZM9.17576 3.64152L9.33326 3.68112C9.36099 3.68806 9.38536 3.70464 9.40201 3.72788C9.41865 3.75112 9.4265 3.77952 9.42416 3.80802L9.41335 3.94302C9.41144 3.96493 9.41575 3.98694 9.42578 4.00652C9.43581 4.0261 9.45115 4.04246 9.47006 4.05372L9.63745 4.15451C9.91735 4.71521 10.1765 5.2291 10.4195 5.7034C10.4429 5.7493 10.5014 5.7574 10.5356 5.7205C10.9289 5.2984 11.4032 4.79801 11.9621 4.21931C11.9846 4.19669 11.9974 4.16624 11.9979 4.13436C11.9984 4.10247 11.9866 4.07164 11.9648 4.04832C11.6813 3.75852 11.3843 3.45522 11.063 3.13033L11.0216 2.93953C11.017 2.91807 11.0065 2.89833 10.9912 2.88258C10.9759 2.86682 10.9565 2.85568 10.9352 2.85043L10.8038 2.81713C10.7762 2.81002 10.7519 2.79341 10.7353 2.77021C10.7187 2.74701 10.7108 2.71869 10.7129 2.69023L10.7264 2.52823C10.7279 2.5125 10.7262 2.49664 10.7214 2.48159C10.7166 2.46654 10.7087 2.45263 10.6984 2.44069C10.688 2.42875 10.6754 2.41902 10.6612 2.4121C10.647 2.40519 10.6315 2.40122 10.6157 2.40044C10.4582 2.39594 10.1495 2.44093 9.71395 2.75413C9.27926 3.06643 9.13796 3.34452 9.09116 3.49572C9.08656 3.51103 9.08515 3.52712 9.08701 3.54299C9.08887 3.55887 9.09396 3.57419 9.10197 3.58802C9.10998 3.60185 9.12074 3.61389 9.13359 3.6234C9.14643 3.63291 9.16109 3.63969 9.17666 3.64332L9.17576 3.64152Z" fill="white"/>
</svg>
