<svg width="32" height="32" viewBox="0 0 32 32" fill="none" xmlns="http://www.w3.org/2000/svg">
<path d="M14.8005 16.7746L7.8118 26.5341C7.45421 27.0333 6.85181 27.2961 6.24222 27.2205C5.54863 27.1341 4.59344 26.8737 3.60825 26.1657C2.62306 25.4577 2.07107 24.6345 1.76747 24.0033C1.63617 23.7314 1.58047 23.4292 1.60623 23.1283C1.63199 22.8274 1.73825 22.539 1.91387 22.2934L8.90259 12.5339C9.23522 12.0691 9.67155 11.6883 10.177 11.4215L11.5522 10.6967C11.8282 10.5515 12.0754 10.3571 12.2817 10.1231C12.9489 9.36592 14.7405 7.38235 17.9169 4.17479L17.9721 3.92039C17.9785 3.89179 17.9927 3.86549 18.013 3.84434C18.0333 3.82319 18.059 3.80799 18.0873 3.80039L18.2625 3.75599C18.2993 3.74652 18.3317 3.72437 18.3538 3.69343C18.376 3.66249 18.3866 3.62474 18.3837 3.58679L18.3657 3.3708C18.3637 3.34963 18.3661 3.32828 18.3727 3.30806C18.3792 3.28785 18.3899 3.26919 18.4039 3.25323C18.418 3.23727 18.4351 3.22435 18.4543 3.21527C18.4736 3.20618 18.4944 3.20112 18.5157 3.2004C18.7269 3.1944 19.1373 3.2556 19.7169 3.67199C20.2965 4.08839 20.4849 4.45918 20.5473 4.66078C20.5534 4.68119 20.5553 4.70264 20.5528 4.7238C20.5503 4.74497 20.5435 4.7654 20.5328 4.78384C20.5222 4.80228 20.5078 4.81834 20.4907 4.83102C20.4736 4.8437 20.454 4.85274 20.4333 4.85758L20.2233 4.91038C20.1862 4.91941 20.1535 4.94146 20.1313 4.9725C20.109 5.00355 20.0987 5.04154 20.1021 5.07957L20.1165 5.25957C20.1189 5.28878 20.1131 5.31807 20.0997 5.34415C20.0863 5.37023 20.066 5.39206 20.0409 5.40717L19.8177 5.54157C17.8029 9.58432 16.5009 11.9207 15.9981 12.7967C15.8433 13.0677 15.7389 13.3645 15.6897 13.6727L15.4437 15.2099C15.3536 15.7747 15.1334 16.3108 14.8005 16.7758V16.7746ZM30.0871 22.2922L23.0984 12.5327C22.7658 12.0679 22.3295 11.6871 21.824 11.4203L20.4489 10.6943C20.1728 10.5491 19.9256 10.3547 19.7193 10.1207C19.4867 9.85708 19.2519 9.59547 19.0149 9.33592C19.0033 9.32385 18.9891 9.31464 18.9734 9.30906C18.9576 9.30347 18.9408 9.30165 18.9242 9.30375C18.9077 9.30586 18.8918 9.31181 18.878 9.32115C18.8641 9.33049 18.8526 9.34295 18.8445 9.35752C18.1708 10.6597 17.4727 11.9492 16.7505 13.2251C16.6472 13.405 16.5777 13.6022 16.5453 13.8071C16.4757 14.2455 16.4757 14.6922 16.5453 15.1307L16.5573 15.2075C16.6473 15.7726 16.8681 16.309 17.2005 16.7734L24.1892 26.5329C24.5444 27.0285 25.1372 27.2949 25.742 27.2217C26.7008 27.0993 27.6129 26.7356 28.3928 26.1645C29.1781 25.61 29.8108 24.8662 30.2323 24.0021C30.3639 23.7303 30.4197 23.428 30.394 23.1271C30.3682 22.8261 30.263 22.5377 30.0871 22.2922ZM11.5678 4.85518L11.7778 4.90798C11.8147 4.91724 11.8472 4.93933 11.8694 4.97032C11.8916 5.00131 11.9021 5.03918 11.899 5.07718L11.8846 5.25717C11.882 5.28639 11.8877 5.31574 11.9011 5.34185C11.9145 5.36796 11.935 5.38976 11.9602 5.40477L12.1834 5.53917C12.5565 6.28676 12.9021 6.97195 13.2261 7.60434C13.2573 7.66554 13.3353 7.67634 13.3809 7.62714C13.9053 7.06435 14.5377 6.39716 15.2829 5.62557C15.3129 5.59541 15.33 5.55481 15.3307 5.5123C15.3313 5.46978 15.3155 5.42866 15.2865 5.39757C14.9085 5.01118 14.5125 4.60678 14.0841 4.17359L14.0289 3.91919C14.0228 3.89058 14.0088 3.86426 13.9884 3.84326C13.968 3.82225 13.9421 3.80739 13.9137 3.80039L13.7385 3.75599C13.7017 3.74652 13.6693 3.72437 13.6472 3.69343C13.625 3.66249 13.6144 3.62474 13.6173 3.58679L13.6353 3.3708C13.6373 3.34982 13.635 3.32867 13.6286 3.3086C13.6221 3.28854 13.6117 3.26999 13.5979 3.25407C13.5841 3.23815 13.5673 3.22518 13.5483 3.21596C13.5294 3.20673 13.5088 3.20144 13.4877 3.2004C13.2777 3.1944 12.8661 3.2544 12.2853 3.67199C11.7058 4.08839 11.5174 4.45918 11.455 4.66078C11.4488 4.68119 11.4469 4.70264 11.4494 4.7238C11.4519 4.74497 11.4587 4.7654 11.4694 4.78384C11.4801 4.80228 11.4944 4.81834 11.5115 4.83102C11.5287 4.8437 11.5482 4.85274 11.569 4.85758L11.5678 4.85518Z" fill="white"/>
</svg>
