<svg width="36" height="28" viewBox="0 0 36 28" fill="none" xmlns="http://www.w3.org/2000/svg">
<path d="M34.8534 9.17295L26.5133 9.16432C25.1933 6.28315 23.7438 3.46624 22.1649 0.713571C21.8466 0.159058 21.0906 -0.031893 20.5409 0.289235C19.9818 0.615758 19.7957 1.35367 20.115 1.91142C21.471 4.27811 22.7321 6.69478 23.8983 9.16144H23.4191L12.1075 9.14993C13.2739 6.68998 14.5331 4.27727 15.885 1.91178C16.2032 1.35511 16.0157 0.614319 15.4591 0.289235C14.9026 -0.0358486 14.1545 0.15726 13.8351 0.714649C12.2627 3.45916 10.8159 6.26985 9.49498 9.14669L5.32797 9.14238L1.14656 9.13806C-0.380926 9.13806 -0.383446 11.5075 1.14656 11.5093H2.462C2.4687 11.5504 2.47748 11.591 2.48828 11.6312L6.77805 25.0377C6.98133 25.6735 7.18461 26.3088 7.38789 26.9436C7.42011 27.0415 7.46373 27.1353 7.51785 27.223C7.68813 27.5736 8.02185 27.8387 8.53234 27.8394L25.1053 27.8653L27.4677 27.8689C28.0746 27.8689 28.4368 27.4945 28.5613 27.0418C28.6182 26.9527 28.6638 26.8569 28.6971 26.7566L33.1341 13.1085C33.304 12.5868 33.4737 12.0649 33.6431 11.5428H34.8534C36.3809 11.5456 36.3834 9.17438 34.8534 9.17295ZM24.12 11.532C23.9431 12.5362 23.7665 13.5407 23.5901 14.5455L22.0835 14.5437L19.1988 14.5404C19.1988 13.8931 19.1994 13.2466 19.2006 12.6007C19.2006 12.2425 19.2006 11.8846 19.2006 11.5269L24.12 11.532ZM28.422 19.9352L25.0427 19.9306C25.2193 18.9265 25.396 17.9226 25.5726 16.9189L27.4968 16.921L29.4012 16.9232C29.0741 17.9279 28.7473 18.9323 28.4209 19.9363L28.422 19.9352ZM22.644 19.928L21.384 19.9262L19.1927 19.9234C19.1927 18.9198 19.1936 17.9162 19.1956 16.9124L23.1721 16.9171C22.9957 17.9208 22.8197 18.9245 22.644 19.928ZM21.6648 25.4894L19.188 25.4847C19.188 24.421 19.189 23.3574 19.1909 22.2939L22.2264 22.2978L21.91 24.0977C21.8281 24.562 21.7464 25.0259 21.6648 25.4894ZM14.3334 25.4778C14.1462 24.4141 13.9591 23.3504 13.7721 22.2867H14.616L16.8167 22.2896L16.8145 24.4832V25.4793L14.3334 25.4778ZM6.66537 16.898L10.427 16.9023L10.9548 19.9108H10.1376L7.62693 19.9072C7.30581 18.9039 6.98481 17.9008 6.66393 16.898H6.66537ZM12.8271 16.9052H13.919L16.8232 16.9088C16.8232 17.9121 16.8222 18.9155 16.8203 19.9191L13.356 19.9151L12.8271 16.9052ZM16.8286 11.5255L16.8253 14.5386L12.4103 14.5336C12.2663 13.7132 12.1223 12.8931 11.9783 12.0732L11.88 11.5205H12.582L16.8286 11.5255ZM9.48022 11.5179C9.65662 12.522 9.83314 13.5262 10.0098 14.5307L8.5057 14.5289L5.90397 14.5257L5.38665 12.9075C5.23761 12.4421 5.08869 11.9769 4.93989 11.5118L9.48022 11.5179ZM9.40822 25.4707C9.06766 24.4069 8.72722 23.3433 8.3869 22.2799L11.3727 22.2838C11.5167 23.0989 11.6601 23.914 11.8029 24.7291C11.8466 24.9778 11.8903 25.2262 11.934 25.4746H10.8957L9.40822 25.4707ZM24.0649 25.4933C24.2517 24.4296 24.4387 23.366 24.6262 22.3025H25.8635L27.6516 22.305L27.0436 24.175C26.8996 24.6152 26.7565 25.0552 26.6145 25.4951L24.0649 25.4933ZM30.1705 14.5527L25.9884 14.5491C26.0964 13.9341 26.2044 13.319 26.3124 12.7036L26.518 11.5356L30.6717 11.5399H31.1501C30.8235 12.5449 30.497 13.5491 30.1705 14.5527Z" fill="white"/>
</svg>
